#!OML:ASF I:\Actors\actors\Patient Classification 2\Patient 1\Session 1\actor1.ASF
:FULLY-SPECIFIED
:DEGREES
566
root -0.65591 18.6275 5.89531 -1.99349 -4.49052 -1.85963
lowerback 3.59346 0.903546 -1.04738
upperback -1.42347 1.17322 0.598723
thorax -3.51381 0.614587 1.12622
lowerneck -13.5022 -2.81595 -2.11947
upperneck 22.3013 -4.34352 3.64373
head 9.37988 -1.81351 1.08489
rclavicle -1.85118e-015 -1.98785e-014
rhumerus -47.5867 -8.60024 -80.4503
rradius 47.2453
rwrist 6.47988
rhand -8.87143 -35.098
rfingers 7.12502
rthumb 17.0702 -64.3681
lclavicle -1.85118e-015 -1.98785e-014
lhumerus -40.8673 7.27813 83.2535
lradius 44.1462
lwrist 7.03545
lhand -8.87306 -22.6355
lfingers 7.12502
lthumb 17.0686 6.63466
rfemur 10.3631 8.03818 16.5324
rtibia 2.22639e-014
rfoot -19.3079 -12.7366
rtoes 1.34675
lfemur 0.506907 -5.94208 -13.2886
ltibia 20.9215
lfoot -23.702 14.2821
ltoes -54.4441
567
root -0.656642 18.6289 5.87974 -1.93496 -4.47466 -1.85251
lowerback 3.64789 0.922787 -1.05042
upperback -1.44043 1.19821 0.59668
thorax -3.56281 0.627411 1.12312
lowerneck -13.5427 -2.79416 -2.14205
upperneck 22.3149 -4.31785 3.68722
head 9.39297 -1.7978 1.10633
rclavicle 1.56543e-015 -1.11319e-014
rhumerus -47.5427 -8.44402 -80.7374
rradius 47.3338
rwrist 6.34737
rhand -8.65377 -35.0556
rfingers 7.12502
rthumb 17.2797 -64.3073
lclavicle 1.56543e-015 -1.11319e-014
lhumerus -40.847 6.67369 83.682
lradius 44.5549
lwrist 7.51567
lhand -8.7812 -22.7157
lfingers 7.12502
lthumb 17.157 6.54684
rfemur 10.2416 8.02018 16.5175
rtibia 2.8625e-014
rfoot -19.2458 -12.7923
rtoes 1.10083
lfemur 0.389493 -5.94898 -13.2754
ltibia 20.905
lfoot -23.6591 14.2852
ltoes -54.3903
568
root -0.658227 18.6317 5.86436 -1.88694 -4.43511 -1.80552
lowerback 3.70339 0.9199 -1.12195
upperback -1.46042 1.19025 0.598329
thorax -3.61618 0.62551 1.16442
lowerneck -13.5256 -2.76202 -2.19884
upperneck 22.2966 -4.27029 3.73612
head 9.38418 -1.77537 1.13874
rclavicle -1.83876e-015 1.35174e-014
rhumerus -47.4943 -8.33404 -81.0055
rradius 47.317
rwrist 6.39956
rhand -8.39375 -35.0889
rfingers 7.12502
rthumb 17.5299 -64.3186
lclavicle -1.83876e-015 1.35174e-014
lhumerus -40.9451 6.11538 84.1001
lradius 44.9717
lwrist 7.95281
lhand -8.70758 -22.6859
lfingers 7.12502
lthumb 17.2279 6.57045
rfemur 10.1352 7.98044 16.4611
rtibia -1.11319e-014
rfoot -19.1947 -12.8616
rtoes 0.884355
lfemur 0.269915 -5.97804 -13.3051
ltibia 20.8963
lfoot -23.6391 14.296
ltoes -54.3426
569
root -0.659204 18.6344 5.84976 -1.8356 -4.38114 -1.82017
lowerback 3.73915 0.913204 -1.11117
upperback -1.47486 1.18151 0.597705
thorax -3.65082 0.62117 1.15765
lowerneck -13.4605 -2.7605 -2.22025
upperneck 22.2501 -4.27603 3.79446
head 9.35779 -1.77482 1.16242
rclavicle 5.36719e-015 -8.54774e-015
rhumerus -47.4436 -8.3176 -81.2659
rradius 47.189
rwrist 6.61402
rhand -8.19042 -35.0262
rfingers 7.12502
rthumb 17.7256 -64.2382
lclavicle 5.36719e-015 -8.54774e-015
lhumerus -41.1027 5.60793 84.4657
lradius 45.3696
lwrist 8.3459
lhand -8.54638 -22.6153
lfingers 7.12502
lthumb 17.383 6.62737
rfemur 10.0367 7.92397 16.4682
rtibia 4.77083e-015
rfoot -19.1783 -12.8938
rtoes 0.991461
lfemur 0.15068 -5.97653 -13.2632
ltibia 20.892
lfoot -23.5992 14.3203
ltoes -54.4378
570
root -0.658879 18.6354 5.83783 -1.78876 -4.35837 -1.86476
lowerback 3.74526 0.921119 -1.00618
upperback -1.47273 1.19657 0.571167
thorax -3.64963 0.62585 1.07031
lowerneck -13.4179 -2.77323 -2.1915
upperneck 22.205 -4.30556 3.8208
head 9.33512 -1.78435 1.16348
rclavicle -1.38155e-014 1.39149e-015
rhumerus -47.3903 -8.36948 -81.5129
rradius 47.0491
rwrist 7.10424
rhand -7.54423 -34.9555
rfingers 7.12502
rthumb 18.3473 -64.1103
lclavicle -1.38155e-014 1.39149e-015
lhumerus -41.2057 5.09877 84.8174
lradius 45.6357
lwrist 8.75107
lhand -8.39463 -22.5
lfingers 7.12502
lthumb 17.5291 6.72975
rfemur 9.94743 7.89831 16.5048
rtibia 9.54166e-015
rfoot -19.1403 -12.9261
rtoes 0.832057
lfemur 0.0521611 -5.89464 -13.188
ltibia 20.8957
lfoot -23.5608 14.2559
ltoes -54.4744
571
root -0.659297 18.6354 5.82745 -1.79933 -4.31085 -1.87937
lowerback 3.78542 0.91173 -0.970237
upperback -1.43941 1.18545 0.567559
thorax -3.6367 0.619193 1.04686
lowerneck -13.4456 -2.77324 -2.18192
upperneck 22.1883 -4.30096 3.79791
head 9.33354 -1.78365 1.15421
rclavicle 2.16675e-014 3.18055e-015
rhumerus -47.351 -8.37192 -81.7492
rradius 46.9572
rwrist 7.62084
rhand -6.78361 -35.1222
rfingers 7.12502
rthumb 19.0789 -64.2064
lclavicle 2.16675e-014 3.18055e-015
lhumerus -41.2901 4.68259 85.2035
lradius 45.8026
lwrist 9.05255
lhand -8.33994 -22.3604
lfingers 7.12502
lthumb 17.5817 6.8646
rfemur 9.93163 7.85206 16.5174
rtibia -3.18055e-014
rfoot -19.1168 -12.9368
rtoes 0.723343
lfemur 0.0130162 -5.82205 -13.1472
ltibia 20.9077
lfoot -23.5192 14.1262
ltoes -54.4404
572
root -0.660438 18.6359 5.81657 -1.8273 -4.24531 -1.86379
lowerback 3.88283 0.895635 -1.02494
upperback -1.42414 1.16122 0.594334
thorax -3.67703 0.608839 1.10545
lowerneck -13.4786 -2.77889 -2.23505
upperneck 22.2181 -4.29076 3.77225
head 9.35033 -1.78531 1.1552
rclavicle 2.62147e-015 4.77083e-015
rhumerus -47.383 -8.34085 -81.9628
rradius 46.8167
rwrist 7.87964
rhand -6.47428 -35.2867
rfingers 7.12502
rthumb 19.3764 -64.3413
lclavicle 2.62147e-015 4.77083e-015
lhumerus -41.435 4.41796 85.579
lradius 45.906
lwrist 9.19219
lhand -8.26625 -22.3518
lfingers 7.12502
lthumb 17.6526 6.86684
rfemur 9.9342 7.78978 16.5006
rtibia 1.74931e-014
rfoot -19.0818 -12.9373
rtoes 0.823209
lfemur -0.0136207 -5.81307 -13.1457
ltibia 20.919
lfoot -23.4708 14.0345
ltoes -54.3716
573
root -0.660737 18.6376 5.80469 -1.79092 -4.20982 -1.83848
lowerback 3.96962 0.892717 -1.07634
upperback -1.45634 1.15433 0.609168
thorax -3.7606 0.607412 1.14847
lowerneck -13.4752 -2.78358 -2.28233
upperneck 22.2533 -4.28234 3.75066
head 9.3622 -1.78734 1.15683
rclavicle 2.62147e-015 -6.36111e-015
rhumerus -47.4681 -8.38611 -82.0956
rradius 46.5996
rwrist 8.3217
rhand -5.85106 -35.0728
rfingers 7.12502
rthumb 19.9755 -64.066
lclavicle 2.62147e-015 -6.36111e-015
lhumerus -41.6061 4.24906 85.9018
lradius 45.8993
lwrist 9.26742
lhand -8.20256 -22.4466
lfingers 7.12502
lthumb 17.7139 6.76651
rfemur 9.85199 7.75447 16.4632
rtibia 2.22639e-014
rfoot -19.0214 -12.968
rtoes 0.810192
lfemur -0.108822 -5.81075 -13.1565
ltibia 20.9238
lfoot -23.444 14.0006
ltoes -54.358
574
root -0.661626 18.6394 5.79325 -1.73718 -4.15609 -1.83616
lowerback 4.00429 0.886991 -1.10283
upperback -1.46516 1.14515 0.615337
thorax -3.78975 0.603762 1.16976
lowerneck -13.4958 -2.79675 -2.28506
upperneck 22.2527 -4.29394 3.72709
head 9.36574 -1.79524 1.1475
rclavicle 6.18717e-015 -1.09332e-014
rhumerus -47.5165 -8.46333 -82.2357
rradius 46.3282
rwrist 8.7299
rhand -5.46321 -34.6537
rfingers 7.12502
rthumb 20.3483 -63.6076
lclavicle 6.18717e-015 -1.09332e-014
lhumerus -41.7677 4.08706 86.2096
lradius 45.8612
lwrist 9.36166
lhand -8.2861 -22.4884
lfingers 7.12502
lthumb 17.6335 6.732
rfemur 9.75991 7.69838 16.453
rtibia -2.8625e-014
rfoot -19.0039 -12.994
rtoes 0.770379
lfemur -0.224587 -5.7885 -13.129
ltibia 20.9248
lfoot -23.3853 13.9538
ltoes -54.4304
575
root -0.663271 18.6403 5.78466 -1.72728 -4.1055 -1.8528
lowerback 4.00425 0.88157 -1.11076
upperback -1.42443 1.13789 0.626741
thorax -3.74775 0.600018 1.18683
lowerneck -13.5533 -2.81384 -2.26181
upperneck 22.2371 -4.30968 3.67763
head 9.36992 -1.80536 1.12393
rclavicle 7.95139e-016 2.06736e-014
rhumerus -47.5296 -8.53261 -82.41
rradius 46.0375
rwrist 8.95586
rhand -4.72149 -34.9036
rfingers 7.12502
rthumb 21.061 -63.7799
lclavicle 7.95139e-016 2.06736e-014
lhumerus -41.9091 4.00569 86.4939
lradius 45.7845
lwrist 9.34408
lhand -8.38827 -22.5384
lfingers 7.12502
lthumb 17.5352 6.69076
rfemur 9.73033 7.64662 16.4737
rtibia -9.54166e-015
rfoot -18.9934 -13.0029
rtoes 0.693213
lfemur -0.284836 -5.75136 -13.0806
ltibia 20.9286
lfoot -23.2791 13.8792
ltoes -54.4684
576
root -0.664795 18.6413 5.77796 -1.71615 -4.08401 -1.88009
lowerback 4.00397 0.883933 -1.09396
upperback -1.40064 1.14238 0.638322
thorax -3.723 0.601723 1.18922
lowerneck -13.5844 -2.81998 -2.24879
upperneck 22.2203 -4.31106 3.64081
head 9.36874 -1.80865 1.10851
rclavicle 8.0632e-015 7.95139e-015
rhumerus -47.5417 -8.65762 -82.5376
rradius 45.6834
rwrist 9.32028
rhand -3.03296 -35.7276
rfingers 7.12502
rthumb 22.6823 -64.4145
lclavicle 8.0632e-015 7.95139e-015
lhumerus -42.0454 4.04848 86.7086
lradius 45.5642
lwrist 9.23639
lhand -8.31712 -22.7843
lfingers 7.12502
lthumb 17.6037 6.43878
rfemur 9.7017 7.62333 16.5069
rtibia -1.90833e-014
rfoot -18.9597 -13.0106
rtoes 0.58451
lfemur -0.333185 -5.72265 -13.0281
ltibia 20.9386
lfoot -23.2199 13.8148
ltoes -54.4719
577
root -0.66613 18.6421 5.77174 -1.70395 -4.06459 -1.91084
lowerback 4.03228 0.894564 -1.07037
upperback -1.39594 1.15785 0.645151
thorax -3.73425 0.608981 1.18152
lowerneck -13.6127 -2.83313 -2.27941
upperneck 22.2143 -4.32819 3.66885
head 9.37397 -1.81574 1.12083
rclavicle -7.88927e-016 -2.38542e-015
rhumerus -47.5488 -8.80763 -82.6418
rradius 45.2668
rwrist 9.64939
rhand -2.37901 -36.044
rfingers 7.12502
rthumb 23.3098 -64.6529
lclavicle -7.88927e-016 -2.38542e-015
lhumerus -42.2346 3.97456 86.9372
lradius 45.3105
lwrist 9.2798
lhand -8.31467 -23.2184
lfingers 7.12502
lthumb 17.606 6.00441
rfemur 9.67336 7.60189 16.5441
rtibia -1.74931e-014
rfoot -18.9487 -13.0081
rtoes 0.714164
lfemur -0.375728 -5.71554 -12.9763
ltibia 20.9537
lfoot -23.215 13.7605
ltoes -54.4455
578
root -0.666674 18.6421 5.76737 -1.70459 -4.06002 -1.9487
lowerback 4.04977 0.905564 -1.02967
upperback -1.38701 1.1747 0.647506
thorax -3.73456 0.616383 1.15969
lowerneck -13.6253 -2.83699 -2.30923
upperneck 22.2075 -4.33828 3.71977
head 9.37624 -1.8172 1.14195
rclavicle 8.61607e-015 1.19271e-014
rhumerus -47.6031 -8.92619 -82.7515
rradius 44.8968
rwrist 9.9331
rhand -2.77781 -35.8905
rfingers 7.12502
rthumb 22.9272 -64.5473
lclavicle 8.61607e-015 1.19271e-014
lhumerus -42.4988 3.80932 87.191
lradius 45.1616
lwrist 9.40561
lhand -8.46129 -23.485
lfingers 7.12502
lthumb 17.4649 5.75044
rfemur 9.66103 7.59594 16.5892
rtibia -9.54166e-015
rfoot -18.9447 -13.0027
rtoes 0.89066
lfemur -0.39744 -5.70231 -12.923
ltibia 20.9724
lfoot -23.2374 13.7099
ltoes -54.3812
579
root -0.66682 18.6419 5.7646 -1.70006 -4.05187 -1.98686
lowerback 4.03613 0.903596 -0.977438
upperback -1.38278 1.17514 0.649932
thorax -3.72144 0.615317 1.1331
lowerneck -13.5547 -2.82112 -2.33034
upperneck 22.1407 -4.31908 3.76093
head 9.34044 -1.80717 1.16278
rclavicle -1.45361e-015 -7.55382e-015
rhumerus -47.682 -9.05384 -82.8256
rradius 44.5293
rwrist 10.2425
rhand -3.14842 -35.759
rfingers 7.12502
rthumb 22.5715 -64.4595
lclavicle -1.45361e-015 -7.55382e-015
lhumerus -42.778 3.79904 87.3761
lradius 45.0425
lwrist 9.4348
lhand -8.54723 -23.4787
lfingers 7.12502
lthumb 17.3822 5.76405
rfemur 9.64965 7.58619 16.6319
rtibia 1.59028e-015
rfoot -18.9206 -12.9913
rtoes 0.812274
lfemur -0.422342 -5.68342 -12.8717
ltibia 20.9894
lfoot -23.2657 13.68
ltoes -54.3655
